<svg width="34" height="34" viewBox="0 0 34 34" fill="none" xmlns="http://www.w3.org/2000/svg">
<path d="M0 17C0 7.61116 7.61116 0 17 0C26.3888 0 34 7.61116 34 17C34 26.3888 26.3888 34 17 34C7.61116 34 0 26.3888 0 17Z" fill="#1677FF"/>
<path d="M11.4398 27.777C9.53346 27.3495 8.42894 25.4762 8.76223 23.5513C9.21547 20.9365 11.1033 20.1701 13.4266 20.0019C16.0438 19.8119 19.243 20.3489 22.142 19.2613C27.2346 17.3509 27.8102 9.89463 23.2916 5C23.7343 12.3476 8.24459 7.92873 7 20.3625C9.62362 14.7273 15.9713 16.9427 21.5108 13.4336C17.9582 18.2727 10.3643 15.5017 7.67945 21.4502C6.66993 23.6866 7.30752 25.9407 8.70105 27.1732C10.0946 28.4057 12.4485 28.6625 13.8082 27.4831C13.1022 27.8397 12.2722 27.9637 11.4398 27.777Z" fill="url(#paint0_linear_406_67)"/>
<path d="M26.993 20.0968C25.7887 21.6948 24.1102 21.3019 22.1378 20.5226C20.0528 21.2085 17.8752 21.2439 15.9278 21.2625C17.7375 22.2035 19.6084 23.552 22.0606 23.8998C19.2276 24.5679 17.0009 22.4998 14.5536 21.6738C13.6882 21.3816 12.7535 21.3438 11.8768 21.5974C10.7683 21.9186 10.1919 22.5497 9.92541 23.7983C9.92138 23.8185 9.91816 23.8386 9.91414 23.8587C10.0301 23.7243 10.1605 23.5995 10.3062 23.4876C13.5207 21.0193 15.7032 25.9639 19.676 27.4001C23.372 28.7372 27.1838 24.9069 26.993 20.0968Z" fill="url(#paint1_linear_406_67)"/>
<defs>
<linearGradient id="paint0_linear_406_67" x1="51" y1="2112.08" x2="3349" y2="1287.92" gradientUnits="userSpaceOnUse">
<stop stop-color="#00FFC2"/>
<stop offset="1" stop-color="#17ED59"/>
</linearGradient>
<linearGradient id="paint1_linear_406_67" x1="20.5072" y1="458.101" x2="1553.69" y2="-91.1166" gradientUnits="userSpaceOnUse">
<stop stop-color="#03FCB2" stop-opacity="0.74"/>
<stop offset="1" stop-color="#1FCB5B"/>
</linearGradient>
</defs>
</svg>
