<svg width="129" height="34" viewBox="0 0 129 34" fill="none" xmlns="http://www.w3.org/2000/svg">
<path d="M42.88 24V10.4H47.36C48.7867 10.4 49.8533 10.76 50.56 11.48C51.28 12.2 51.64 13.16 51.64 14.36V15.42C51.64 16.62 51.28 17.5867 50.56 18.32C49.8533 19.04 48.7867 19.4 47.36 19.4H45.28V24H42.88ZM47.36 12.7H45.28V17.1H47.36C47.9467 17.1 48.3933 16.9533 48.7 16.66C49.02 16.3667 49.18 15.9533 49.18 15.42V14.36C49.18 13.84 49.02 13.4333 48.7 13.14C48.3933 12.8467 47.9467 12.7 47.36 12.7Z" fill="#1677FF"/>
<path d="M54.0044 21.14V9.2H56.3044V21.14C56.3044 21.34 56.351 21.5333 56.4444 21.72C56.551 21.8933 56.751 21.98 57.0444 21.98H57.3644V24.1H56.8044C56.0444 24.1 55.4644 23.9533 55.0644 23.66C54.6644 23.3667 54.3844 22.9933 54.2244 22.54C54.0777 22.0867 54.0044 21.62 54.0044 21.14Z" fill="#1677FF"/>
<path d="M67.2717 24.1C66.5917 24.1 66.0451 23.96 65.6317 23.68C65.2317 23.4 64.9384 23.0533 64.7517 22.64C64.1784 23.1733 63.6251 23.5667 63.0917 23.82C62.5584 24.0733 61.9851 24.2 61.3717 24.2C60.4784 24.2 59.8184 23.9133 59.3917 23.34C58.9784 22.7667 58.7717 22.04 58.7717 21.16C58.7717 20.5733 58.8784 20.06 59.0917 19.62C59.3184 19.1667 59.6851 18.8133 60.1917 18.56C60.6984 18.3067 61.3917 18.18 62.2717 18.18C62.6184 18.18 62.9784 18.2067 63.3517 18.26C63.7251 18.3 64.0984 18.3533 64.4717 18.42V17.24C64.4717 16.68 64.3184 16.3 64.0117 16.1C63.7051 15.8867 63.2917 15.78 62.7717 15.78C62.3717 15.78 61.9317 15.8333 61.4517 15.94C60.9851 16.0467 60.4784 16.2133 59.9317 16.44L59.2717 14.48C60.6184 13.9333 61.8384 13.66 62.9317 13.66C63.9184 13.66 64.6784 13.8267 65.2117 14.16C65.7584 14.4933 66.1384 14.9333 66.3517 15.48C66.5651 16.0267 66.6717 16.6133 66.6717 17.24V21.14C66.6717 21.34 66.7251 21.5333 66.8317 21.72C66.9517 21.8933 67.1784 21.98 67.5117 21.98H67.7317V24.1H67.2717ZM60.9917 21.12C60.9917 21.48 61.0717 21.7667 61.2317 21.98C61.3917 22.18 61.6251 22.28 61.9317 22.28C62.2384 22.28 62.5851 22.2 62.9717 22.04C63.3584 21.88 63.8584 21.5067 64.4717 20.92V20.06C63.7784 19.94 63.0984 19.88 62.4317 19.88C61.9117 19.88 61.5384 19.9867 61.3117 20.2C61.0984 20.4133 60.9917 20.72 60.9917 21.12Z" fill="#1677FF"/>
<path d="M74.6884 15.8C74.3551 15.8 73.9751 15.88 73.5484 16.04C73.1218 16.2 72.6151 16.5133 72.0284 16.98V24H69.7284V13.86H71.9084V15.22C72.5351 14.6733 73.1284 14.28 73.6884 14.04C74.2484 13.7867 74.8151 13.66 75.3884 13.66C76.3618 13.66 77.1018 13.9733 77.6084 14.6C78.1151 15.2133 78.3684 16.08 78.3684 17.2V24H76.0684V17.48C76.0684 16.36 75.6084 15.8 74.6884 15.8Z" fill="#1677FF"/>
<path d="M87.5081 23.66C87.1615 23.82 86.7615 23.9467 86.3081 24.04C85.8548 24.1467 85.3948 24.2 84.9281 24.2C84.1548 24.2 83.5348 24.04 83.0681 23.72C82.6015 23.4 82.2615 22.9533 82.0481 22.38C81.8481 21.8067 81.7481 21.1533 81.7481 20.42V15.86H80.1081V13.86H81.7481V11.22H84.0481V13.86H87.2081V15.86H84.0481V20.42C84.0481 21.0333 84.1615 21.46 84.3881 21.7C84.6281 21.9267 84.9681 22.04 85.4081 22.04C85.6215 22.04 85.8481 22.02 86.0881 21.98C86.3415 21.9267 86.6215 21.84 86.9281 21.72L87.5081 23.66Z" fill="#1677FF"/>
<path d="M89.6573 24V10.4H94.2573C95.884 10.4 97.124 10.8533 97.9773 11.76C98.8307 12.6667 99.2573 14 99.2573 15.76V18.62C99.2573 20.3933 98.8307 21.7333 97.9773 22.64C97.124 23.5467 95.884 24 94.2573 24H89.6573ZM94.1573 12.7H92.0573V21.7H94.1573C95.104 21.7 95.7773 21.4667 96.1773 21C96.5907 20.5333 96.7973 19.74 96.7973 18.62V15.76C96.7973 14.6533 96.5907 13.8667 96.1773 13.4C95.7773 12.9333 95.104 12.7 94.1573 12.7Z" fill="#1677FF"/>
<path d="M110.431 18.32V19.52C110.431 20.9333 110.044 22.0667 109.271 22.92C108.497 23.7733 107.404 24.2 105.991 24.2C104.577 24.2 103.484 23.7733 102.711 22.92C101.937 22.0667 101.551 20.9333 101.551 19.52V18.32C101.551 16.9067 101.931 15.78 102.691 14.94C103.464 14.0867 104.564 13.66 105.991 13.66C107.417 13.66 108.511 14.0867 109.271 14.94C110.044 15.78 110.431 16.9067 110.431 18.32ZM108.071 18.32C108.071 17.5067 107.891 16.8733 107.531 16.42C107.171 15.9533 106.657 15.72 105.991 15.72C105.324 15.72 104.811 15.9533 104.451 16.42C104.091 16.8733 103.911 17.5067 103.911 18.32V19.52C103.911 20.3333 104.091 20.9733 104.451 21.44C104.811 21.9067 105.324 22.14 105.991 22.14C106.657 22.14 107.171 21.9067 107.531 21.44C107.891 20.9733 108.071 20.3333 108.071 19.52V18.32Z" fill="#1677FF"/>
<path d="M114.77 18.34V19.52C114.77 20.3733 114.923 21.0133 115.23 21.44C115.536 21.8667 116.03 22.08 116.71 22.08C117.043 22.08 117.416 22.04 117.83 21.96C118.256 21.8667 118.716 21.7267 119.21 21.54L119.87 23.48C119.27 23.72 118.703 23.9 118.17 24.02C117.636 24.14 117.11 24.2 116.59 24.2C115.256 24.2 114.236 23.7733 113.53 22.92C112.823 22.0667 112.47 20.9333 112.47 19.52V18.34C112.47 16.9133 112.823 15.78 113.53 14.94C114.236 14.0867 115.256 13.66 116.59 13.66C117.096 13.66 117.61 13.72 118.13 13.84C118.65 13.96 119.196 14.1333 119.77 14.36L119.11 16.34C118.15 15.9667 117.35 15.78 116.71 15.78C116.03 15.78 115.536 15.9933 115.23 16.42C114.923 16.8333 114.77 17.4733 114.77 18.34Z" fill="#1677FF"/>
<path d="M124.815 22.2C125.308 22.2 125.715 22.12 126.035 21.96C126.355 21.7867 126.515 21.5333 126.515 21.2C126.515 20.9067 126.408 20.68 126.195 20.52C125.995 20.3467 125.628 20.1933 125.095 20.06L123.955 19.76C123.075 19.5333 122.421 19.1533 121.995 18.62C121.581 18.0867 121.375 17.4533 121.375 16.72C121.375 15.8533 121.675 15.1267 122.275 14.54C122.875 13.9533 123.801 13.66 125.055 13.66C125.561 13.66 126.095 13.72 126.655 13.84C127.215 13.96 127.801 14.1533 128.415 14.42L127.755 16.38C127.195 16.1133 126.688 15.9267 126.235 15.82C125.781 15.7133 125.381 15.66 125.035 15.66C124.088 15.66 123.615 15.98 123.615 16.62C123.615 16.8733 123.695 17.0733 123.855 17.22C124.028 17.3667 124.341 17.5 124.795 17.62L125.935 17.92C126.908 18.1733 127.615 18.56 128.055 19.08C128.508 19.6 128.735 20.2533 128.735 21.04C128.735 21.9733 128.415 22.7333 127.775 23.32C127.148 23.9067 126.155 24.2 124.795 24.2C123.635 24.2 122.415 23.9333 121.135 23.4L121.755 21.5C122.381 21.7533 122.948 21.9333 123.455 22.04C123.961 22.1467 124.415 22.2 124.815 22.2Z" fill="#1677FF"/>
<path d="M0 17C0 7.61116 7.61116 0 17 0C26.3888 0 34 7.61116 34 17C34 26.3888 26.3888 34 17 34C7.61116 34 0 26.3888 0 17Z" fill="#1677FF"/>
<path d="M11.4398 27.777C9.53346 27.3495 8.42894 25.4762 8.76223 23.5513C9.21547 20.9365 11.1033 20.1701 13.4266 20.0019C16.0438 19.8119 19.243 20.3489 22.142 19.2613C27.2346 17.3509 27.8102 9.89463 23.2916 5C23.7343 12.3476 8.24459 7.92873 7 20.3625C9.62362 14.7273 15.9713 16.9427 21.5108 13.4336C17.9582 18.2727 10.3643 15.5017 7.67945 21.4502C6.66993 23.6866 7.30752 25.9407 8.70105 27.1732C10.0946 28.4057 12.4485 28.6625 13.8082 27.4831C13.1022 27.8397 12.2722 27.9637 11.4398 27.777Z" fill="url(#paint0_linear_406_66)"/>
<path d="M26.993 20.0968C25.7887 21.6948 24.1102 21.3019 22.1378 20.5226C20.0528 21.2085 17.8752 21.2439 15.9278 21.2625C17.7375 22.2035 19.6084 23.552 22.0606 23.8998C19.2276 24.5679 17.0009 22.4998 14.5536 21.6738C13.6882 21.3816 12.7535 21.3438 11.8768 21.5974C10.7683 21.9186 10.1919 22.5497 9.92541 23.7983C9.92138 23.8185 9.91816 23.8386 9.91414 23.8587C10.0301 23.7243 10.1605 23.5995 10.3062 23.4876C13.5207 21.0193 15.7032 25.9639 19.676 27.4001C23.372 28.7372 27.1838 24.9069 26.993 20.0968Z" fill="url(#paint1_linear_406_66)"/>
<defs>
<linearGradient id="paint0_linear_406_66" x1="193.102" y1="2112.08" x2="7193.19" y2="-4511.31" gradientUnits="userSpaceOnUse">
<stop stop-color="#00FFC2"/>
<stop offset="1" stop-color="#17ED59"/>
</linearGradient>
<linearGradient id="paint1_linear_406_66" x1="20.5072" y1="458.101" x2="1553.69" y2="-91.1167" gradientUnits="userSpaceOnUse">
<stop stop-color="#03FCB2" stop-opacity="0.74"/>
<stop offset="1" stop-color="#1FCB5B"/>
</linearGradient>
</defs>
</svg>
