<svg width="260" height="260" viewBox="0 0 260 260" fill="none" xmlns="http://www.w3.org/2000/svg">
<g clip-path="url(#clip0_329_4)">
<rect width="260" height="260" rx="70" fill="white"/>
<path d="M180.204 73.1137L79.1922 182.622L47.4127 165.802L69.5061 72.9394C70.6366 68.0827 72.4773 62.9578 75.028 57.5647L74.6729 57.3768C71.071 62.8954 67.7804 67.2529 64.8013 70.4493L-0.0790726 140.666L-33.1901 123.141L0.71146 -21.8864L32.0471 -5.30131L5.11375 88.9768C3.97261 92.9945 1.96664 98.1455 -0.904168 104.43L-0.371554 104.712C2.27675 100.28 5.76567 95.7619 10.0952 91.1588L77.8522 18.942L108.566 35.1982L84.1867 131.737C83.2961 135.281 81.5651 140.199 78.9936 146.49L79.3487 146.678C82.0597 142.128 85.1866 137.721 88.7295 133.46L151.265 57.7972L180.204 73.1137Z" fill="#21D388"/>
<path d="M128.992 208.979L196.36 81.6646L241.455 105.532C286.668 129.462 298.328 162.114 276.436 203.486C265.944 223.315 251.382 235.874 232.75 241.166C214.177 246.488 194.622 243.715 174.087 232.847L128.992 208.979ZM212.677 120.19L169.973 200.894L184.176 208.411C196.604 214.989 208.312 216.412 219.301 212.682C230.348 208.983 239.27 200.711 246.067 187.867C252.487 175.734 254.008 164.341 250.63 153.688C247.343 143.008 239.367 134.316 226.702 127.613L212.677 120.19Z" fill="#21D388"/>
</g>
<rect x="3.5" y="3.5" width="253" height="253" rx="66.5" stroke="#21D388" stroke-width="7"/>
<defs>
<clipPath id="clip0_329_4">
<rect width="260" height="260" rx="70" fill="white"/>
</clipPath>
</defs>
</svg>
