<?xml version="1.0" standalone="no"?>
<!DOCTYPE svg PUBLIC "-//W3C//DTD SVG 20010904//EN"
 "http://www.w3.org/TR/2001/REC-SVG-20010904/DTD/svg10.dtd">
<svg version="1.0" xmlns="http://www.w3.org/2000/svg"
 width="700.000000pt" height="700.000000pt" viewBox="0 0 700.000000 700.000000"
 preserveAspectRatio="xMidYMid meet">
<metadata>
Created by potrace 1.14, written by Peter Selinger 2001-2017
</metadata>
<g transform="translate(0.000000,700.000000) scale(0.100000,-0.100000)"
fill="#000000" stroke="none">
<path d="M3280 6994 c-19 -2 -84 -9 -145 -14 -578 -56 -1180 -283 -1660 -625
-237 -169 -531 -446 -709 -670 -416 -521 -673 -1147 -748 -1820 -17 -155 -17
-575 0 -730 52 -469 198 -931 418 -1327 290 -523 731 -983 1239 -1294 439
-269 920 -432 1460 -496 145 -17 576 -17 730 0 822 91 1556 447 2131 1034 203
206 348 390 487 618 274 449 433 916 499 1465 16 136 16 592 0 730 -86 725
-352 1347 -803 1885 -122 145 -351 370 -494 484 -510 407 -1117 661 -1775 742
-117 15 -553 27 -630 18z m1697 -1251 c178 -249 312 -534 379 -808 41 -167 55
-272 61 -450 18 -568 -199 -1045 -596 -1310 -167 -111 -361 -185 -603 -229
-227 -42 -334 -48 -948 -57 -327 -4 -611 -11 -630 -14 -294 -53 -434 -106
-568 -216 -257 -211 -354 -633 -220 -957 144 -347 540 -525 898 -402 73 26 44
1 -55 -45 -104 -49 -215 -69 -349 -62 -403 20 -714 270 -827 665 -129 452 108
1010 554 1303 228 150 426 221 1037 373 336 83 505 134 666 201 195 82 380
201 506 327 74 74 154 168 141 168 -4 0 -35 -16 -68 -36 -156 -94 -415 -207
-620 -269 -183 -55 -358 -97 -730 -175 -493 -102 -685 -157 -892 -255 -272
-129 -479 -324 -623 -587 -22 -40 -40 -67 -40 -60 0 28 31 216 50 299 54 233
158 479 285 668 202 302 461 518 858 715 212 106 396 177 867 335 436 146 586
203 735 277 254 128 397 256 482 435 47 97 62 160 70 280 l6 101 63 -74 c34
-40 84 -104 111 -141z"/>
</g>
</svg>
