<?xml version="1.0" standalone="no"?>
<!DOCTYPE svg PUBLIC "-//W3C//DTD SVG 20010904//EN"
 "http://www.w3.org/TR/2001/REC-SVG-20010904/DTD/svg10.dtd">
<svg version="1.0" xmlns="http://www.w3.org/2000/svg"
 width="700.000000pt" height="700.000000pt" viewBox="0 0 700.000000 700.000000"
 preserveAspectRatio="xMidYMid meet">
<metadata>
Created by potrace 1.14, written by Peter Selinger 2001-2017
</metadata>
<g transform="translate(0.000000,700.000000) scale(0.100000,-0.100000)"
fill="#000000" stroke="none">
<path d="M1685 6989 c-426 -44 -838 -242 -1137 -546 -116 -118 -165 -178 -248
-303 -152 -232 -256 -525 -290 -815 -14 -125 -14 -3485 1 -3626 46 -456 246
-866 577 -1180 305 -291 687 -465 1111 -508 142 -15 3460 -15 3602 -1 219 23
429 80 617 170 206 99 345 195 516 360 311 300 506 698 556 1135 14 125 14
3486 -1 3626 -38 376 -187 735 -424 1019 -318 382 -767 619 -1264 670 -125 12
-3494 12 -3616 -1z m3655 -193 c698 -93 1257 -598 1425 -1287 42 -172 46 -274
43 -921 l-3 -606 -65 39 c-36 22 -108 64 -160 93 -143 81 -1292 687 -1295 684
-16 -20 -1805 -3414 -1802 -3421 3 -10 811 -442 1182 -631 308 -158 491 -226
750 -276 127 -26 424 -38 544 -23 89 12 85 7 -69 -71 -114 -59 -235 -104 -363
-137 -193 -49 -175 -49 -2022 -49 -1153 0 -1759 4 -1815 11 -134 16 -226 37
-355 80 -609 206 -1045 738 -1131 1379 -11 83 -14 281 -14 933 l0 828 662 717
c365 394 725 785 801 867 128 137 286 334 332 413 38 63 33 30 -10 -74 -25
-58 -56 -142 -70 -187 -22 -73 -625 -2594 -625 -2614 0 -9 832 -453 849 -453
9 0 2709 2922 2714 2937 3 12 -762 415 -773 408 -14 -9 -1700 -2051 -1773
-2147 -34 -46 -84 -118 -111 -160 -27 -43 -51 -76 -53 -74 -3 2 18 64 46 138
27 73 61 171 74 218 41 142 670 2641 666 2644 -2 2 -188 101 -413 220 l-410
217 -27 -28 c-39 -41 -1688 -1802 -1791 -1913 l-88 -94 0 167 0 167 204 715
c228 797 204 736 340 857 278 249 586 391 946 437 36 5 850 9 1810 10 1444 0
1763 -2 1850 -13z m614 -3153 c252 -133 299 -162 412 -249 216 -167 359 -392
409 -643 26 -124 16 -353 -18 -478 -76 -269 -230 -536 -417 -723 -148 -148
-315 -246 -508 -297 -86 -24 -115 -27 -262 -26 -181 0 -265 16 -435 82 -75 29
-529 261 -548 280 -7 7 1130 2171 1142 2171 2 0 104 -53 225 -117z"/>
</g>
</svg>
